<?xml version="1.0" encoding="UTF-8" standalone="no"?>
<svg width="40px" height="40px" viewBox="0 0 40 40" version="1.1" xmlns="http://www.w3.org/2000/svg" xmlns:xlink="http://www.w3.org/1999/xlink">
    <!-- Generator: Sketch 46.2 (44496) - http://www.bohemiancoding.com/sketch -->
    <title>Facebook Copy</title>
    <desc>Created with Sketch.</desc>
    <defs></defs>
    <g id="LandingPage" stroke="none" stroke-width="1" fill="none" fill-rule="evenodd">
        <g id="BB1_1_Inicio_Landing_page" transform="translate(-1104.000000, -2372.000000)">
            <g id="Footer" transform="translate(0.000000, 2280.000000)">
                <g id="Facebook-Copy" transform="translate(1104.000000, 92.000000)">
                    <path d="M39.9961,20 C39.9961,31.043 31.0431,40 19.9961,40 C8.9491,40 0.0001,31.043 0.0001,20 C0.0001,8.957 8.9491,0 19.9961,0 C31.0431,0 39.9961,8.957 39.9961,20" id="Fill-1" fill="#6584FB"></path>
                    <path d="M17.0431055,32 L17.0431055,19.9725173 L15,19.9725173 L15,16.4011908 L17.0431055,16.4011908 L17.0431055,15.7931889 C17.0431055,13.9100262 17.6160514,11.8373422 19.0182901,10.5621815 C20.2321029,9.41519409 21.9235532,9 23.3257919,9 C24.4103358,9 25.238533,9.13145987 25.9089783,9.31879019 L25.7161705,13.0522505 C25.3064539,12.9218862 24.7948559,12.8298643 24.1550845,12.8298643 C22.5600381,12.8298643 21.8895928,14.0732555 21.8895928,15.600381 L21.8895928,16.4011908 L25.0172422,16.4011908 L25.0172422,19.9725173 L21.9235532,19.9725173 L21.9235532,32 L17.0431055,32 Z" id="Fill-4" fill="#FFFFFF"></path>
                </g>
            </g>
        </g>
    </g>
</svg>