<svg xmlns="http://www.w3.org/2000/svg" width="40" height="40" viewBox="0 0 40 40">
    <g fill="none" fill-rule="evenodd">
        <path fill="#6584FB" d="M39.996 20c0 11.043-8.953 20-20 20S0 31.043 0 20 8.95 0 19.996 0c11.047 0 20 8.957 20 20"/>
        <path fill="#FFF" d="M17.043 32V19.973H15V16.4h2.043v-.608c0-1.883.573-3.956 1.975-5.23C20.232 9.414 21.924 9 23.326 9c1.084 0 1.913.131 2.583.319l-.193 3.733a5.112 5.112 0 0 0-1.56-.222c-1.596 0-2.266 1.243-2.266 2.77v.801h3.127v3.572h-3.093V32h-4.88z"/>
    </g>
</svg>
