<svg xmlns="http://www.w3.org/2000/svg" width="24" height="24" viewBox="0 0 24 24">
    <g>
        <path fill="#B3B3B3" fill-rule="evenodd" d="M6.362 3.728v.2c-.63 0-1.243.644-1.784 1.213a8.914 8.914 0 0 1-.34.353c-.48.482-.405 1.87.19 3.449.772 2.048 2.31 4.284 4.327 6.3 2.021 2.02 4.26 3.557 6.303 4.329 1.56.588 2.98.655 3.447.186.086-.085.174-.168.264-.255l.086-.081c.583-.553 1.243-1.178 1.218-1.823-.019-.44-.36-.933-1.016-1.462-.864-.694-1.494-1.018-1.98-1.018-.525 0-.897.377-1.412.9l-.193.193c-.533.532-1.382.448-2.497-.277-.717-.466-1.607-1.228-2.646-2.264-2.657-2.657-3.44-4.245-2.543-5.146l.193-.19c.971-.953 1.46-1.432-.117-3.394-.529-.654-1.02-.995-1.462-1.013l-.038-.2zm11.026 17.345c-.769 0-1.696-.198-2.682-.57-2.177-.822-4.54-2.439-6.656-4.553-2.118-2.12-3.736-4.483-4.556-6.657-.765-2.03-.75-3.713.042-4.506.087-.087.174-.178.263-.272l.058-.06c.68-.716 1.451-1.526 2.511-1.526h.071c.755.033 1.473.487 2.197 1.39 2.143 2.66 1.121 3.665.04 4.728l-.185.185c-.006.008-.559.634 2.543 3.732.975.98 1.81 1.697 2.483 2.134.46.298.844.462 1.083.462.115 0 .154-.04.167-.053l.19-.188c.608-.619 1.185-1.206 2.085-1.206.738 0 1.577.398 2.64 1.252.903.726 1.356 1.444 1.385 2.196.044 1.096-.826 1.922-1.525 2.585l-.089.084c-.084.08-.165.157-.242.235-.397.398-1.028.608-1.823.608z"/>
    </g>
</svg>
