<svg xmlns="http://www.w3.org/2000/svg" width="24" height="24" viewBox="0 0 24 24">
    <g fill="#B3B3B3" fill-rule="evenodd">
        <path d="M18.49 19.644a.527.527 0 0 1-.525.529H5.625a.53.53 0 0 1-.53-.529V9.375c0-.274.208-.501.473-.529h12.397c.29 0 .525.237.525.529v10.269zM7.541 7.436c0-2.394 1.86-4.34 4.252-4.34 2.392 0 4.255 1.946 4.255 4.34v.314H7.541v-.314zm10.51.314h-.908v-.398c0-2.952-2.4-5.352-5.35-5.352a5.355 5.355 0 0 0-5.348 5.352v.398H5.54A1.54 1.54 0 0 0 4 9.291v10.438c0 .85.69 1.54 1.54 1.54h12.507c.848 0 1.54-.69 1.54-1.54V9.291c0-.85-.69-1.541-1.537-1.541z"/>
        <path d="M11.793 11.976a1.304 1.304 0 0 0-.498 2.508.51.51 0 0 1 .314.47v1.906c0 .1.082.18.184.18a.184.184 0 0 0 .187-.18v-1.906a.51.51 0 0 1 .308-.469c.495-.201.815-.675.815-1.207a1.312 1.312 0 0 0-1.31-1.303m0 6.077a1.196 1.196 0 0 1-1.195-1.192v-1.595a2.318 2.318 0 0 1 1.195-4.3 2.32 2.32 0 0 1 2.317 2.313c0 .819-.426 1.569-1.12 1.983v1.6a1.201 1.201 0 0 1-1.197 1.191"/>
    </g>
</svg>
