<svg xmlns="http://www.w3.org/2000/svg" xmlns:xlink="http://www.w3.org/1999/xlink" width="24" height="24" viewBox="0 0 24 24">
    <defs>
        <path id="a" d="M9.759 0h9.758v17.16H0V0H9.76z"/>
    </defs>
    <g fill="none" fill-rule="evenodd">
        <g transform="translate(2 3)">
            <mask id="b" fill="#fff">
                <use xlink:href="#a"/>
            </mask>
            <path fill="#B3B3B3" d="M17.146 8.45l-7.394 7.364-7.377-7.378a4.254 4.254 0 0 1-1.258-3.033c0-1.145.444-2.222 1.253-3.028a4.255 4.255 0 0 1 3.026-1.254A4.27 4.27 0 0 1 8.431 2.38l.935.935a.558.558 0 0 0 .791 0l.927-.927a4.269 4.269 0 0 1 3.032-1.258 4.27 4.27 0 0 1 3.03 1.254A4.255 4.255 0 0 1 18.4 5.416a4.242 4.242 0 0 1-1.255 3.033m.794-6.856a5.354 5.354 0 0 0-3.819-1.58A5.37 5.37 0 0 0 10.3 1.596l-.534.534-.543-.542A5.38 5.38 0 0 0 5.396 0 5.36 5.36 0 0 0 1.58 1.581 5.347 5.347 0 0 0 0 5.403c0 1.444.567 2.798 1.589 3.82l7.77 7.77a.563.563 0 0 0 .393.166.56.56 0 0 0 .393-.162l7.788-7.758a5.369 5.369 0 0 0 1.584-3.823 5.347 5.347 0 0 0-1.576-3.823" mask="url(#b)"/>
        </g>
        <path d="M0 0h24v24H0z"/>
    </g>
</svg>
