<svg xmlns="http://www.w3.org/2000/svg" width="24" height="24" viewBox="0 0 24 24">
    <path fill="#B3B3B3" fill-rule="evenodd" d="M4.453 10.321a5.874 5.874 0 0 1 5.868-5.867c3.238 0 5.874 2.632 5.875 5.867a5.853 5.853 0 0 1-1.657 4.081c-.01.008-.024.012-.033.022-.017.016-.024.038-.038.055a5.86 5.86 0 0 1-4.146 1.717c-3.236 0-5.869-2.635-5.869-5.875M21.795 20.73l-5.845-5.847a7.259 7.259 0 0 0 1.634-4.592c0-4.02-3.272-7.291-7.293-7.291C6.271 3 3 6.271 3 10.291c0 4.022 3.271 7.293 7.291 7.293a7.256 7.256 0 0 0 4.68-1.707l5.84 5.84a.613.613 0 0 0 .434.175.726.726 0 0 0 .507-.217.73.73 0 0 0 .221-.512.597.597 0 0 0-.178-.433"/>
</svg>
