<svg xmlns="http://www.w3.org/2000/svg" width="24" height="24" viewBox="0 0 24 24">
    <path fill="#B3B3B3" fill-rule="evenodd" d="M21.963 7.047a.424.424 0 0 0-.571.183c-3.461 6.699-9.435 6.776-9.688 6.776-6.51-.005-9.865-6.55-9.897-6.614a.425.425 0 1 0-.761.38c.064.13.818 1.592 2.267 3.153l-1.183 1.18a.445.445 0 1 0 .632.629l1.174-1.177c.77.735 1.699 1.449 2.782 2.029l-.857 1.502a.448.448 0 0 0 .39.664.444.444 0 0 0 .383-.225l.886-1.555c1.074.468 2.285.78 3.633.852v1.734a.443.443 0 1 0 .887 0v-1.716c.61-.043 1.976-.216 3.604-.92l.914 1.604a.444.444 0 0 0 .606.167.449.449 0 0 0 .166-.606l-.882-1.55a12.544 12.544 0 0 0 2.787-2.003l1.2 1.2a.442.442 0 0 0 .628 0 .449.449 0 0 0 0-.628l-1.2-1.197a14.771 14.771 0 0 0 2.284-3.29.426.426 0 0 0-.184-.572"/>
</svg>
