<?xml version="1.0" encoding="utf-8"?>
<!-- Generator: Adobe Illustrator 16.0.0, SVG Export Plug-In . SVG Version: 6.00 Build 0)  -->
<!DOCTYPE svg PUBLIC "-//W3C//DTD SVG 1.1//EN" "http://www.w3.org/Graphics/SVG/1.1/DTD/svg11.dtd">
<svg version="1.1" id="Layer_1" xmlns="http://www.w3.org/2000/svg" xmlns:xlink="http://www.w3.org/1999/xlink" x="0px" y="0px"
	 width="24px" height="24px" viewBox="0 0 24 24" enable-background="new 0 0 24 24" xml:space="preserve">
<g>
	<rect fill="none" width="24" height="24"/>
	<g>
		<g>
			<path fill="#B3B3B3" d="M12.034,6.72"/>
			<path fill="#B3B3B3" d="M12,12.965h-0.045c-1.937-0.025-3.493-1.622-3.468-3.561c0.024-1.912,1.6-3.469,3.513-3.469
				c1.98,0.025,3.536,1.621,3.512,3.559C15.487,11.408,13.912,12.965,12,12.965z M12,6.92c-1.377,0-2.511,1.12-2.528,2.498
				c-0.018,1.395,1.102,2.545,2.496,2.562h0c1.41,0,2.543-1.121,2.561-2.499c0.018-1.395-1.103-2.544-2.497-2.562H12z"/>
		</g>
		<g>
			<path fill="#B3B3B3" d="M11.848,21.883h-0.006c-0.149-0.002-0.285-0.067-0.375-0.18c-0.278-0.34-6.849-8.423-6.799-12.348
				c0.051-3.99,3.339-7.237,7.33-7.237h0.094c1.955,0.025,3.785,0.812,5.154,2.217c1.369,1.403,2.108,3.253,2.084,5.208
				c-0.049,3.834-6.386,11.33-7.108,12.172C12.125,21.823,11.99,21.883,11.848,21.883z M11.999,3.101
				c-3.455,0-6.302,2.812-6.346,6.269c-0.039,3.064,4.86,9.53,6.205,11.247c1.389-1.682,6.45-8.022,6.489-11.087
				c0.045-3.5-2.767-6.384-6.266-6.428L11.999,3.101z"/>
		</g>
	</g>
</g>
</svg>
