<svg xmlns="http://www.w3.org/2000/svg" width="24" height="24" viewBox="0 0 24 24">
    <g fill="#B3B3B3" fill-rule="nonzero">
        <path d="M12 13.391a1.355 1.355 0 1 1 1.355-1.356c0 .747-.607 1.356-1.355 1.356z"/>
        <path d="M12 19.447c-7.16 0-10.781-7.133-10.816-7.206a.479.479 0 0 1-.049-.205v-.072c0-.071.018-.144.051-.209C1.219 11.686 4.84 4.553 12 4.553c7.037 0 10.662 6.903 10.814 7.197.035.081.049.15.049.215v.072a.526.526 0 0 1-.041.196c-.16.311-3.785 7.214-10.822 7.214zM2.117 12c.559 1.006 3.879 6.508 9.883 6.508 6.002 0 9.324-5.502 9.881-6.508C21.324 10.994 18 5.492 12 5.492c-6.002 0-9.324 5.502-9.883 6.508z"/>
        <path d="M12 15.701a3.67 3.67 0 0 1-3.664-3.667A3.669 3.669 0 0 1 12 8.368a3.669 3.669 0 0 1 3.664 3.666A3.669 3.669 0 0 1 12 15.701zm0-6.392a2.73 2.73 0 0 0-2.727 2.726A2.73 2.73 0 0 0 12 14.763a2.73 2.73 0 0 0 2.725-2.728A2.728 2.728 0 0 0 12 9.309z"/>
    </g>
</svg>
