<?xml version="1.0" encoding="utf-8"?>
<!-- Generator: Adobe Illustrator 16.0.0, SVG Export Plug-In . SVG Version: 6.00 Build 0)  -->
<!DOCTYPE svg PUBLIC "-//W3C//DTD SVG 1.1//EN" "http://www.w3.org/Graphics/SVG/1.1/DTD/svg11.dtd">
<svg version="1.1" id="Layer_1" xmlns="http://www.w3.org/2000/svg" xmlns:xlink="http://www.w3.org/1999/xlink" x="0px" y="0px"
	 width="24px" height="24px" viewBox="0 0 24 24" enable-background="new 0 0 24 24" xml:space="preserve">
<g>
	<path fill="#B3B3B3" d="M17.535,4.289H16.1v-0.25c0-0.237-0.191-0.431-0.428-0.431h-2.194C13.288,2.958,12.688,2.5,12,2.5
		c-0.69,0-1.289,0.458-1.477,1.108H8.328C8.093,3.608,7.9,3.802,7.9,4.039v0.25H6.465c-0.797,0-1.443,0.647-1.443,1.441v14.326
		c0,0.796,0.646,1.443,1.443,1.443h11.07c0.797,0,1.443-0.647,1.443-1.443V5.73C18.979,4.937,18.332,4.289,17.535,4.289z
		 M10.893,4.713c0.404,0,0.429-0.438,0.429-0.674c0-0.374,0.304-0.679,0.679-0.679c0.181,0,0.353,0.071,0.48,0.2
		c0.127,0.128,0.197,0.298,0.196,0.479c0,0.236-0.021,0.674,0.431,0.674h1.896l0.002,1.297H8.997L8.995,4.713H10.893z M17.883,19.82
		c0,0.322-0.262,0.584-0.585,0.584H6.7c-0.321,0-0.583-0.262-0.583-0.584V5.838c0.035-0.254,0.148-0.453,0.773-0.453H7.9v1.291
		c0,0.237,0.192,0.43,0.428,0.43h7.344c0.236,0,0.428-0.192,0.428-0.43V5.369h1.198c0.323,0,0.585,0.262,0.585,0.583V19.82z"/>
	<rect fill="none" width="24" height="24"/>
</g>
</svg>
