<svg xmlns="http://www.w3.org/2000/svg" width="24" height="24" viewBox="0 0 24 24">
    <g fill="#B3B2B3" fill-rule="evenodd">
        <path d="M9.07 4.55a.516.516 0 0 1-.08.008c-.748 0-1.502.538-1.502 1.742 0 .35.056.858.164 1.515.178-.403.351-.727.452-.91a.506.506 0 0 1 .418-.263 14.969 14.969 0 0 1 1.862-.118c3.145 0 4.963 1.022 4.981 1.033a.435.435 0 0 1 .131.1c.154-1.297.111-2.42.011-3.071-.73.026-1.498-.127-2.316-.291-.728-.146-1.475-.297-2.148-.297-.668 0-1.19.15-1.596.458a.504.504 0 0 1-.378.095M8.861 7.61c-.225.428-.8 1.612-.8 2.475v.445a4.82 4.82 0 0 0 1.085 3.02c.69.833 1.573 1.292 2.488 1.292.914 0 1.797-.46 2.485-1.291a4.824 4.824 0 0 0 1.082-3.021V9.457l-.465-1.097c-.486-.221-2.04-.832-4.377-.832-.492 0-.996.027-1.498.082m2.773 8.23c-1.218 0-2.375-.586-3.258-1.653A5.831 5.831 0 0 1 7.06 10.53v-.602c-.092-.377-.572-2.466-.572-3.628 0-.733.23-1.41.648-1.907.454-.537 1.11-.834 1.85-.835.56-.375 1.232-.558 2.06-.558.782 0 1.573.158 2.338.313.707.142 1.377.276 1.961.276.151 0 .291-.01.418-.027a.39.39 0 0 1 .118-.001.498.498 0 0 1 .498.343c.105.32.218 1.034.22 2.065 0 .786-.068 2.023-.4 3.458l.002 1.103a5.83 5.83 0 0 1-1.313 3.657c-.88 1.067-2.037 1.654-3.254 1.654M19.262 21.144c0 .126-.16.236-.342.236H4.342c-.182 0-.342-.11-.342-.236v-.696c0-.823.508-1.8 1.47-2.075 0 0 2.44-.542 3.33-.589.782.047 1.902.954 2.376 1.265.308.267.808.241 1.106-.03.528-.357 1.64-1.133 2.179-1.235.37-.047 3.33.589 3.33.589.963.275 1.47 1.252 1.47 2.075v.696zm.426-2.541a2.935 2.935 0 0 0-1.647-1.199l-.035-.008s-3.342-.602-3.717-.586c-.52.005-1.632.843-2.05 1.114-.391.266-.657.25-1.116-.045-.375-.242-1.65-1.1-2.15-1.069-.375-.016-3.717.586-3.717.586l-.035.008a2.938 2.938 0 0 0-1.647 1.199A3.306 3.306 0 0 0 3 20.448v.696c0 .682.602 1.235 1.342 1.235H18.92c.74 0 1.342-.553 1.342-1.235v-.696c0-.648-.204-1.303-.574-1.845z"/>
    </g>
</svg>
