<?xml version="1.0" encoding="utf-8"?>
<!-- Generator: Adobe Illustrator 16.0.0, SVG Export Plug-In . SVG Version: 6.00 Build 0)  -->
<!DOCTYPE svg PUBLIC "-//W3C//DTD SVG 1.1//EN" "http://www.w3.org/Graphics/SVG/1.1/DTD/svg11.dtd">
<svg version="1.1" id="Layer_1" xmlns="http://www.w3.org/2000/svg" xmlns:xlink="http://www.w3.org/1999/xlink" x="0px" y="0px"
	 width="24px" height="24px" viewBox="0 0 24 24" enable-background="new 0 0 24 24" xml:space="preserve">
<g>
	<path fill="#B3B3B3" d="M20.148,5.093H3.851c-0.863,0-1.566,0.704-1.566,1.567V17.34c0,0.867,0.703,1.566,1.566,1.566h16.297
		c0.863,0,1.566-0.699,1.566-1.566V6.661C21.715,5.797,21.012,5.093,20.148,5.093z M19.729,6.189c0.02,0,0.037,0.011,0.059,0.012
		l-7.219,6.292c-0.289,0.253-0.848,0.253-1.137,0L4.21,6.202C4.231,6.2,4.25,6.189,4.271,6.189H19.729z M20.619,16.92
		c0,0.492-0.398,0.891-0.891,0.891H4.271c-0.49,0-0.891-0.398-0.891-0.891V7.081c0-0.046,0.02-0.086,0.027-0.131l7.309,6.369
		c0.344,0.301,0.8,0.465,1.284,0.465s0.94-0.166,1.285-0.467l7.307-6.369c0.008,0.045,0.027,0.086,0.027,0.133V16.92z"/>
</g>
</svg>
