<svg xmlns="http://www.w3.org/2000/svg" width="24" height="24" viewBox="0 0 24 24">
    <g fill="#B3B3B3" fill-rule="evenodd">
        <path d="M7.115 11.644c-.045 0-.08.048-.08.105v1.193c0 .057.035.104.08.104H8.52c.044 0 .08-.047.08-.104V11.75c0-.057-.036-.105-.08-.105H7.115zm1.912 2.007H6.608c-.128 0-.23-.131-.23-.295v-2.012c0-.163.102-.295.23-.295h2.419c.129 0 .231.132.231.295v2.012c0 .164-.102.295-.231.295zM11.42 11.644c-.044 0-.08.048-.08.105v1.193c0 .057.036.104.08.104h1.407c.044 0 .08-.047.08-.104V11.75c0-.057-.036-.105-.08-.105H11.42zm1.913 2.007h-2.419c-.128 0-.231-.131-.231-.295v-2.012c0-.163.103-.295.231-.295h2.419c.128 0 .231.132.231.295v2.012c0 .164-.103.295-.231.295zM15.726 11.644c-.044 0-.08.048-.08.105v1.193c0 .057.036.104.08.104h1.406c.045 0 .08-.047.08-.104V11.75c0-.057-.035-.105-.08-.105h-1.406zm1.913 2.007H15.22c-.129 0-.231-.131-.231-.295v-2.012c0-.163.102-.295.231-.295h2.419c.128 0 .231.132.231.295v2.012c0 .164-.103.295-.231.295zM7.115 16.005c-.045 0-.08.048-.08.105v1.194c0 .057.035.104.08.104H8.52c.044 0 .08-.047.08-.104V16.11c0-.057-.036-.105-.08-.105H7.115zm1.912 2.007H6.608c-.128 0-.23-.13-.23-.295v-2.012c0-.163.102-.295.23-.295h2.419c.129 0 .231.132.231.295v2.012c0 .165-.102.295-.231.295zM11.42 16.005c-.044 0-.08.048-.08.105v1.194c0 .057.036.104.08.104h1.407c.044 0 .08-.047.08-.104V16.11c0-.057-.036-.105-.08-.105H11.42zm1.913 2.007h-2.419c-.128 0-.231-.13-.231-.295v-2.012c0-.163.103-.295.231-.295h2.419c.128 0 .231.132.231.295v2.012c0 .165-.103.295-.231.295zM15.726 16.005c-.044 0-.08.048-.08.105v1.194c0 .057.036.104.08.104h1.406c.045 0 .08-.047.08-.104V16.11c0-.057-.035-.105-.08-.105h-1.406zm1.913 2.007H15.22c-.129 0-.231-.13-.231-.295v-2.012c0-.163.102-.295.231-.295h2.419c.128 0 .231.132.231.295v2.012c0 .165-.103.295-.231.295z"/>
        <path d="M20.14 18.862c0 .596-.369 1.074-.827 1.074H4.935c-.458 0-.829-.478-.829-1.074V6.666c0-.593.371-1.076.829-1.076h2.927v1.27h1.063V5.59h6.396v1.27h1.063V5.59h2.93c.457 0 .826.483.826 1.076v12.196zm-.364-14.335h-3.392V3.118H15.32v1.41H8.925v-1.41H7.862v1.41H4.47c-.81 0-1.47.838-1.47 1.867v12.736c0 1.037.66 1.868 1.47 1.868h15.306c.811 0 1.47-.831 1.47-1.868V6.395c0-1.03-.659-1.868-1.47-1.868z"/>
    </g>
</svg>
