<svg xmlns="http://www.w3.org/2000/svg" width="112" height="123" viewBox="0 0 112 123">
    <g fill="#83D1D6" fill-rule="evenodd">
        <path d="M44.934 106.849L32.9 90.306l3-4.545 16.185 13.923-7.152 7.165zm21.43 0l-7.16-7.17 16.187-13.913 2.99 4.545-12.016 16.539zm36.998 10.467H7.936c-1.672 0-3.085-1.096-3.085-2.392v-4.557c0-5.697 3.5-12.468 10.188-14.386l.108-.027 13.759-2.877 13.764 18.902c.39.55 1.014.94 1.527.964l.508.055c.6-.021 1.209-.29 1.68-.744l9.264-9.628 9.32 9.689c.437.424 1.029.67 1.685.68l.186-.013a2.364 2.364 0 0 0 1.773-.98l13.753-18.925 13.762 2.879c6.766 1.932 10.306 8.71 10.306 14.41v4.558c0 1.296-1.407 2.392-3.072 2.392zm-67.57-36.71c-.165 0-.33.01-.491.034a4.29 4.29 0 0 0-2.941 1.69l-3.89 5.882-14.635 3.064c-4.11 1.154-7.673 3.752-10.23 7.493C1.283 102.179 0 106.299 0 110.367v4.557c0 3.993 3.56 7.24 7.936 7.24h95.426c4.369 0 7.923-3.247 7.923-7.24v-4.557c0-4.082-1.281-8.201-3.605-11.596-2.543-3.727-6.101-6.322-10.294-7.511l-14.573-3.048-3.906-5.912a4.22 4.22 0 0 0-2.867-1.656 3.954 3.954 0 0 0-.517-.034c-.974 0-1.972.369-2.81 1.039L55.65 96.352l-17.197-14.8a4.32 4.32 0 0 0-2.661-.946z"/>
        <path d="M29.428 28.648c-.501-3.403-.744-5.985-.744-7.893 0-8.416 5.535-12.25 10.679-12.25.113 0 .217-.011.327-.025l.192-.025.193.026a2.4 2.4 0 0 0 1.762-.463C44.653 5.88 48.236 4.843 52.8 4.843c4.467 0 9.404.992 14.178 1.95l.339.067c4.996.999 9.71 1.939 14.114 1.845l1.339-.03.179 1.328c.68 5.026.67 11.97-.025 18.574l-.241 2.286-1.996-1.141c-.116-.066-11.92-6.658-32.196-6.658-3.991 0-8.04.256-12.034.762l-.108.01c-.87.046-1.596.51-2.046 1.307a67.313 67.313 0 0 0-2.037 3.933s-2.39.274-2.838-.428m27.246 48.864c-6.248 0-12.264-3.113-16.938-8.765-4.643-5.61-7.306-13.01-7.306-20.306v-2.908c0-5.442 3.24-12.535 5.172-16.28l.37-.72.807-.083c3.187-.335 6.4-.504 9.546-.504 14.988 0 25.104 3.785 28.757 5.413l.54.24 3.245 7.653v7.195c0 7.3-2.653 14.703-7.28 20.308-4.668 5.648-10.674 8.757-16.913 8.757m-29.095-34.51v5.439c0 8.406 3.067 16.937 8.414 23.406 5.623 6.78 12.967 10.514 20.68 10.514 7.714 0 15.046-3.734 20.649-10.517 5.335-6.452 8.396-14.98 8.396-23.397l-.027-7.244.04-.17c2.143-9.261 2.593-17.317 2.593-22.445-.011-6.676-.758-11.313-1.395-13.253A2.416 2.416 0 0 0 84.62 3.65l-.29.004-.063-.005a2.044 2.044 0 0 0-.458.02 19.92 19.92 0 0 1-2.844.186c-3.978 0-8.568-.93-13.007-1.827C62.987 1.027 57.88 0 52.814 0c-5.165 0-9.368 1.114-12.85 3.406l-.367.242-.44.005c-4.511.053-8.516 1.886-11.28 5.163-2.606 3.099-4.043 7.339-4.043 11.939 0 6.846 3.745 22.248 3.745 22.248"/>
    </g>
</svg>
