<svg xmlns="http://www.w3.org/2000/svg" width="40" height="40" viewBox="0 0 40 40">
    <g fill="none" fill-rule="evenodd">
        <path fill="#6584FB" d="M39.996 20c0 11.043-8.948 20-20 20C8.953 40 0 31.043 0 20 0 8.953 8.953 0 19.996 0c11.052 0 20 8.953 20 20"/>
        <path fill="#FFF" d="M26.879 31.34H13.467A4.474 4.474 0 0 1 9 26.871V13.463A4.471 4.471 0 0 1 13.467 9h13.412a4.468 4.468 0 0 1 4.46 4.463v13.408a4.47 4.47 0 0 1-4.46 4.469"/>
        <path fill="#6584FB" d="M20.238 17.102a3.142 3.142 0 0 0-3.137 3.137c0 1.73 1.41 3.136 3.137 3.136a3.143 3.143 0 0 0 3.141-3.136 3.143 3.143 0 0 0-3.141-3.137m0 8.376A5.247 5.247 0 0 1 15 20.239 5.246 5.246 0 0 1 20.238 15a5.241 5.241 0 0 1 5.238 5.239 5.242 5.242 0 0 1-5.238 5.239M25.505 12c.83 0 1.506.678 1.506 1.506A1.506 1.506 0 1 1 25.505 12"/>
    </g>
</svg>
