<?xml version="1.0" encoding="UTF-8" standalone="no"?>
<svg width="40px" height="40px" viewBox="0 0 40 40" version="1.1" xmlns="http://www.w3.org/2000/svg" xmlns:xlink="http://www.w3.org/1999/xlink">
    <!-- Generator: Sketch 46.2 (44496) - http://www.bohemiancoding.com/sketch -->
    <title>Instagram Copy</title>
    <desc>Created with Sketch.</desc>
    <defs></defs>
    <g id="LandingPage" stroke="none" stroke-width="1" fill="none" fill-rule="evenodd">
        <g id="BB1_1_Inicio_Landing_page" transform="translate(-1168.000000, -2372.000000)">
            <g id="Footer" transform="translate(0.000000, 2280.000000)">
                <g id="Instagram-Copy" transform="translate(1168.000000, 92.000000)">
                    <path d="M39.9961,20 C39.9961,31.043 31.0481,40 19.9961,40 C8.9531,40 0.0001,31.043 0.0001,20 C0.0001,8.953 8.9531,0 19.9961,0 C31.0481,0 39.9961,8.953 39.9961,20" id="Fill-1" fill="#6584FB"></path>
                    <path d="M26.879,31.34 L13.467,31.34 C11.006,31.34 9,29.336 9,26.871 L9,13.463 C9,11.002 11.006,9 13.467,9 L26.879,9 C29.336,9 31.339,11.002 31.339,13.463 L31.339,26.871 C31.339,29.336 29.336,31.34 26.879,31.34" id="Fill-4" fill="#FFFFFF"></path>
                    <path d="M20.238,17.102 C18.511,17.102 17.101,18.508 17.101,20.239 C17.101,21.969 18.511,23.375 20.238,23.375 C21.968,23.375 23.379,21.969 23.379,20.239 C23.379,18.508 21.968,17.102 20.238,17.102 M20.238,25.478 C17.353,25.478 15,23.127 15,20.239 C15,17.35 17.353,15 20.238,15 C23.131,15 25.476,17.35 25.476,20.239 C25.476,23.127 23.131,25.478 20.238,25.478" id="Fill-6" fill="#6584FB"></path>
                    <path d="M25.505,12 C26.335,12 27.011,12.678 27.011,13.506 C27.011,14.336 26.335,15.012 25.505,15.012 C24.673,15.012 24,14.336 24,13.506 C24,12.678 24.673,12 25.505,12" id="Fill-8" fill="#6584FB"></path>
                </g>
            </g>
        </g>
    </g>
</svg>