<svg xmlns="http://www.w3.org/2000/svg" width="196" height="210" viewBox="0 0 196 210">
    <g fill="none" fill-rule="evenodd">
        <path fill="#E6B9A1" d="M99.238 149.818l-.715-52.31-67.219 22.802 2.174 48.88zM166.816 169.23l-1.383-46.997-66.91-24.726.715 52.311z"/>
        <path fill="#E6DCD6" d="M165.434 122.232l-66.91-24.725 33.148-9.03 63.797 20.248z"/>
        <path fill="#E6CDBE" d="M31.305 120.31l67.219-22.803-36.813-6.139L.53 112.302zM31.305 120.31l65.086 24.297-.281 64.625-62.631-22.083z"/>
        <path fill="#E6DCD6" d="M165.434 122.232l1.94 64.957-71.264 22.042.28-64.625z"/>
        <path fill="#D1D3D4" d="M96.39 144.606l14.505 28.843 72.205-29.218-17.643-22.01z"/>
        <path fill="#E6CDBE" d="M96.39 144.606l21.825 28.771 72.205-29.217-24.963-21.94z"/>
        <path fill="#D1D3D4" d="M96.39 144.606L31.306 120.31l-13.506 26.57 63.457 26.474z"/>
        <path fill="#E6DCD6" d="M96.39 144.606L31.306 120.31 8.614 146.974 72.07 173.45z"/>
        <path fill="#83D1D6" d="M39.946 10.264L24.801 1.74l-2.717 16.277 16.97-2.324z"/>
        <path fill="#43C2CE" d="M23.356 10.389l-1.272 7.629 16.97-2.325.376-2.286z"/>
        <path fill="#83D1D6" d="M74.83 22.494l-34.07-6.396 1.075-5.734 34.07 6.398z"/>
        <path fill="#43C2CE" d="M41.202 13.738l-.443 2.36 34.072 6.396.441-2.359z"/>
        <path fill="#34818B" d="M78.085 24.123l-5.242-.984 1.447-7.7 5.24.985zM42.701 17.48l-5.24-.983 1.444-7.7 5.241.984zM23.042 19.215l-5.242-.983L21.214.049l5.242.984z"/>
        <path fill="#EDCB9E" d="M127.003 125.482l-3.332 7s-2 .375-4-1.625-2-4.5-2-4.5l5-4.125 4.25.125.082 3.125zM86.17 13.982c-1.995 4.354-7 17.833-7 17.833l6 1.5-2.167 6.834s4.75 1 10.5-1.917c4.522-2.293 6.5-3.917 6.5-3.917s-2.082 5.25-6.5 8.834c-3.133 2.542-6.582 4-6.582 4s3.916 1.25 9.416.5c1.824-.249 2 .666 2 2.333 0 1.667-2.834 8.583-2.834 8.583l7 1.5s-2.166-9.416.668-13.583c2.832-4.167 8.5-10.667 8.332-19.167-.166-8.5-2.332-16.833-6-18.666-3.666-1.834-16.506-.834-19.332 5.333"/>
        <path fill="#674400" d="M111.253 31.357s1.959-6.292 2.125-12.875c.168-6.583-.291-12-2.625-13.75-2.332-1.75-15.5-1.25-19.75-1.083-4.25.166-6.582.083-6.582.083l3.166 3.333-12.916.167s4.332 8.583 13.832 8.167c9.5-.417 16.25-5.25 16.25-5.25l6.5 21.208z"/>
        <path fill="#334149" d="M81.11 54.094l-12.3 80.15 27.58 10.363 22.89-7.414 2.89-78.043z"/>
        <path fill="#334149" d="M81.67 54.15l-29.5-2.918 6.815-27.366-4.144-.946-13.838 33.728 39 14.001z"/>
        <path fill="#A3E8F6" d="M101.71 59.49l-4.664-.508-.5 5.22 4.707.52zM96.702 65.92l3.688.344 2.531 44.802-10.918 11.75-6.082-12.75z"/>
        <path fill="#334149" d="M122.17 59.15l23.75 34.582-18.916 31.75-4.334-3.25 13.167-25.416-15.917-15.334z"/>
        <path fill="#EDCB9E" d="M54.706 23.195l.455-12.096s2.203-.58 4.815.12c2.617.701 4.474 2.404 4.474 2.404l-5.547 10.238-4.197-.666z"/>
    </g>
</svg>
