<svg style="position: absolute; width: 0; height: 0; overflow: hidden;" version="1.1" xmlns="http://www.w3.org/2000/svg"
     xmlns:xlink="http://www.w3.org/1999/xlink">
    <defs>

        <symbol id="star-empty" viewBox="0 0 34 32">
            <title>star-empty</title>
            <path class="path-star-empty" fill="#B3B3B3" fill-rule="nonzero" d="M18.529 22.538a.487.487 0 0 1-.231-.059l-6.297-3.311L5.7 22.48a.502.502 0 0 1-.517-.035.494.494 0 0 1-.196-.485l1.203-7.013-5.095-4.966a.494.494 0 0 1 .272-.84l7.042-1.022 3.148-6.383A.494.494 0 0 1 12 1.462c.188 0 .356.105.439.275l3.149 6.382 7.042 1.022a.491.491 0 0 1 .273.84l-5.096 4.968 1.203 7.014a.49.49 0 0 1-.481.575z"/>
        </symbol>

        <symbol id="star-half" viewBox="0 0 34 32">
            <title>star-half</title>
            <path class="path-star-half"
                  d="M 33.412,12.395 21.57,11.374 16.942,0.47 12.314,11.39 0.472,12.395 9.465,20.186 6.764,31.765 16.943,25.621 27.122,31.765 24.437,20.186 33.413,12.395 Z M 16.941,22.541 c 0,0 -0.297971,-14.6455833 0,-15.318 l 2.816,6.654 7.214,0.626 -5.468,4.744 1.647,7.049 z"/>
            </symbol>

        <symbol id="star-filled" viewBox="0 0 34 32">
            <title>star-filled</title>
            <path class="path-star-filled" fill="#FBBD0E" fill-rule="nonzero" d="M18.529 22.538a.487.487 0 0 1-.231-.059l-6.297-3.311L5.7 22.48a.502.502 0 0 1-.517-.035.494.494 0 0 1-.196-.485l1.203-7.013-5.095-4.966a.494.494 0 0 1 .272-.84l7.042-1.022 3.148-6.383A.494.494 0 0 1 12 1.462c.188 0 .356.105.439.275l3.149 6.382 7.042 1.022a.491.491 0 0 1 .273.84l-5.096 4.968 1.203 7.014a.49.49 0 0 1-.481.575z"/>
        </symbol>

    </defs>
</svg>
