<?xml version="1.0" encoding="UTF-8" standalone="no"?>
<svg width="40px" height="40px" viewBox="0 0 40 40" version="1.1" xmlns="http://www.w3.org/2000/svg" xmlns:xlink="http://www.w3.org/1999/xlink">
    <!-- Generator: Sketch 46.2 (44496) - http://www.bohemiancoding.com/sketch -->
    <title>Twitter Copy</title>
    <desc>Created with Sketch.</desc>
    <defs></defs>
    <g id="LandingPage" stroke="none" stroke-width="1" fill="none" fill-rule="evenodd">
        <g id="BB1_1_Inicio_Landing_page" transform="translate(-1232.000000, -2372.000000)">
            <g id="Footer" transform="translate(0.000000, 2280.000000)">
                <g id="Twitter-Copy" transform="translate(1232.000000, 92.000000)">
                    <path d="M40,20 C40,31.043 31.047,40 20,40 C8.952,40 0,31.043 0,20 C0,8.953 8.952,0 20,0 C31.047,0 40,8.953 40,20" id="Fill-1" fill="#6584FB"></path>
                    <path d="M31.179,12.361 C30.316,12.744 29.644,12.897 28.673,13.011 C29.666,12.416 30.427,11.474 30.79,10.351 C29.858,10.902 28.829,11.302 27.733,11.517 C26.858,10.584 25.609,10 24.225,10 C21.574,10 19.418,12.152 19.418,14.806 C19.418,15.181 19.46,15.549 19.54,15.904 C15.547,15.701 12.005,13.791 9.636,10.879 C9.223,11.59 8.982,12.416 8.982,13.297 C8.982,14.963 9.835,16.435 11.118,17.298 C10.331,17.272 9.59,17.058 8.945,16.695 L8.945,16.756 C8.945,19.086 10.599,21.027 12.8,21.47 C12.395,21.578 11.974,21.638 11.531,21.638 C11.226,21.638 10.919,21.609 10.629,21.554 C11.241,23.463 13.014,24.853 15.119,24.89 C13.472,26.179 11.402,26.951 9.147,26.951 C8.761,26.951 8.378,26.927 8,26.882 C8,26.882 9.773,29.332 15.964,30.191 C22.154,31.047 32.808,26.867 29.036,14.742 C29.972,14.066 30.531,13.324 31.179,12.361" id="Fill-3" fill="#FFFFFF"></path>
                </g>
            </g>
        </g>
    </g>
</svg>