<svg xmlns="http://www.w3.org/2000/svg" width="40" height="40" viewBox="0 0 40 40">
    <g fill="none" fill-rule="evenodd">
        <path fill="#6584FB" d="M40 20c0 11.043-8.953 20-20 20C8.952 40 0 31.043 0 20 0 8.953 8.952 0 20 0c11.047 0 20 8.953 20 20"/>
        <path fill="#FFF" d="M31.179 12.361c-.863.383-1.535.536-2.506.65a4.842 4.842 0 0 0 2.117-2.66 9.651 9.651 0 0 1-3.057 1.166 4.81 4.81 0 0 0-8.315 3.289c0 .375.042.743.122 1.098a13.637 13.637 0 0 1-9.904-5.025 4.802 4.802 0 0 0-.654 2.418c0 1.666.853 3.138 2.136 4.001a4.74 4.74 0 0 1-2.173-.603v.061A4.808 4.808 0 0 0 12.8 21.47a4.895 4.895 0 0 1-2.171.084 4.807 4.807 0 0 0 4.49 3.336A9.653 9.653 0 0 1 8 26.882s1.773 2.45 7.964 3.309c6.19.856 16.844-3.324 13.072-15.449.936-.676 1.495-1.418 2.143-2.381"/>
    </g>
</svg>
